<svg width="356" height="240" viewBox="0 0 356 240" fill="none" xmlns="http://www.w3.org/2000/svg">
<path d="M127.8 50L123.6 80H83.6L68.2 190H38.2L53.6 80H13.6L17.8 50H127.8ZM189.477 87.2C199.143 87.2 207.61 89.5667 214.877 94.3C222.21 99.0333 227.677 105.4 231.277 113.4C234.943 121.4 236.077 130.267 234.677 140C233.677 147.267 231.343 154.067 227.677 160.4C224.077 166.733 219.51 172.333 213.977 177.2C208.51 182 202.41 185.767 195.677 188.5C188.943 191.233 181.943 192.6 174.677 192.6C165.01 192.6 157.043 190.233 150.777 185.5C144.51 180.7 140.11 174.4 137.577 166.6L134.277 190H128.277L149.277 40H155.277L145.077 113.2C149.743 105.4 155.877 99.1333 163.477 94.4C171.143 89.6 179.81 87.2 189.477 87.2ZM175.477 186.6C184.077 186.6 192.21 184.5 199.877 180.3C207.543 176.1 213.943 170.467 219.077 163.4C224.277 156.333 227.477 148.533 228.677 140C229.943 131.2 228.91 123.267 225.577 116.2C222.31 109.133 217.41 103.533 210.877 99.4C204.41 95.2667 197.01 93.2 188.677 93.2C180.077 93.2 172.477 95.3333 165.877 99.6C159.277 103.8 153.877 109.467 149.677 116.6C145.543 123.667 142.877 131.467 141.677 140C140.477 148.667 140.977 156.533 143.177 163.6C145.377 170.6 149.177 176.2 154.577 180.4C160.043 184.533 167.01 186.6 175.477 186.6ZM345.202 90H351.202L337.202 190H331.202L334.502 166.6C329.835 174.4 323.668 180.7 316.002 185.5C308.402 190.233 299.735 192.6 290.002 192.6C282.735 192.6 276.102 191.233 270.102 188.5C264.168 185.767 259.135 182 255.002 177.2C250.868 172.333 247.868 166.733 246.002 160.4C244.202 154.067 243.802 147.267 244.802 140C245.802 132.667 248.102 125.833 251.702 119.5C255.368 113.1 259.935 107.5 265.402 102.7C270.935 97.8333 277.068 94.0333 283.802 91.3C290.535 88.5667 297.535 87.2 304.802 87.2C314.535 87.2 322.535 89.6 328.802 94.4C335.068 99.1333 339.468 105.4 342.002 113.2L345.202 90ZM290.802 186.6C299.402 186.6 307.002 184.5 313.602 180.3C320.202 176.1 325.568 170.467 329.702 163.4C333.902 156.333 336.602 148.533 337.802 140C339.068 131.267 338.568 123.367 336.302 116.3C334.102 109.233 330.268 103.633 324.802 99.5C319.402 95.3 312.468 93.2 304.002 93.2C295.402 93.2 287.268 95.3 279.602 99.5C272.002 103.7 265.602 109.367 260.402 116.5C255.202 123.567 252.002 131.4 250.802 140C249.602 148.733 250.635 156.633 253.902 163.7C257.168 170.7 262.035 176.267 268.502 180.4C275.035 184.533 282.468 186.6 290.802 186.6Z" fill="white"/>
</svg>
