<svg width="136" height="29" viewBox="0 0 136 29" fill="none" xmlns="http://www.w3.org/2000/svg">
<path d="M0 20.5176L1.56369 16.7225C3.50483 18.2049 5.76948 18.9758 8.08806 18.9758C10.7841 18.9758 11.9164 17.9677 11.9164 16.6632C11.9164 12.5716 0.377443 15.3586 0.377443 7.29396C0.377443 3.55814 3.12738 0.474609 8.73511 0.474609C11.2154 0.474609 13.7497 1.1269 15.6369 2.43147L14.235 6.28589C12.5635 5.21851 10.6762 4.62552 8.73511 4.56622C6.03908 4.56622 4.96068 5.6929 4.96068 7.05677C4.96068 11.0891 16.4996 8.30204 16.4996 16.3074C16.4996 19.9246 13.7497 23.0674 8.08806 23.0674C4.90676 23.0081 1.72545 22.0001 0 20.5176ZM33.9159 5.93009V22.6523H29.7641V20.6362C28.5778 22.1186 26.8524 22.9488 25.0191 22.8895C21.1907 22.8895 18.4947 20.5176 18.4947 15.3586V5.93009H22.9162V14.7063C22.9162 17.4933 24.0485 18.7386 25.9896 18.7386C28.0386 18.7386 29.4945 17.3155 29.4945 14.2319V5.93009H33.9159ZM70.9593 16.0702H59.4203C59.8517 18.1456 61.4693 19.4502 63.7878 19.4502C65.1898 19.5095 66.5917 18.9165 67.6162 17.7898L69.9887 20.5769C68.5868 22.3558 66.4299 23.3046 63.68 23.3046C58.3958 23.3046 54.9988 19.6874 54.9988 14.7063C54.9988 9.72521 58.5036 6.10799 63.1408 6.10799C67.6162 6.10799 71.0671 9.42872 71.0671 14.7656C71.0132 15.1214 70.9593 15.6551 70.9593 16.0702ZM59.3664 13.2238H66.8613C66.5378 10.9705 64.6506 9.36942 62.5477 9.72521C60.9301 9.96241 59.636 11.3856 59.3664 13.2238Z" fill="white"/>
<path d="M45.5101 5.99021C43.8386 5.99021 42.221 6.58319 40.9269 7.65057V5.93091H36.6133V28.7016H40.9269V21.4079C44.3778 24.1949 49.2307 23.3647 51.8188 19.5696C54.3531 15.7745 53.5982 10.4376 50.1473 7.59127C48.7454 6.5239 47.1278 5.99021 45.5101 5.99021ZM45.5101 18.3243C43.569 18.3243 42.0592 16.6047 42.0592 14.5292C42.0592 12.3945 43.6229 10.7341 45.5101 10.7341C47.4513 10.7341 48.9611 12.4538 48.9611 14.5292C48.9611 16.6047 47.3974 18.3243 45.5101 18.3243Z" fill="white"/>
<path d="M77.5168 6.04834H73.2031V23.0078H77.5168V6.04834Z" fill="white"/>
<path d="M78.1314 23.0076H73.2246L73.6021 15.1801C73.6021 9.90254 77.8618 5.57373 82.7146 5.57373V10.1397C80.1803 10.1397 78.1314 12.3931 78.1314 15.1801V23.0076Z" fill="white"/>
<path d="M90.8568 5.39618H84.4941V1.30457H101.749V5.39618H95.3861V23.0672H90.8028V5.39618H90.8568ZM116.469 15.9514H104.93C105.361 18.0268 106.979 19.3314 109.298 19.3314C110.699 19.3907 112.101 18.7977 113.126 17.7303L115.444 20.5174C114.043 22.2963 111.886 23.2451 109.19 23.2451C103.905 23.2451 100.509 19.6279 100.509 14.6468C100.509 9.66569 104.013 5.92987 108.65 5.92987C113.126 5.92987 116.577 9.2506 116.577 14.5875C116.577 15.0026 116.523 15.5363 116.469 15.9514ZM104.93 13.105H112.425C112.209 11.0296 110.538 9.5471 108.704 9.60639C106.655 9.60639 105.2 10.9703 104.93 13.105ZM125.312 16.5443L123.209 18.857V23.1265H118.788V0H123.209V13.0457L129.626 6.34496H134.91L128.547 13.4015L135.449 23.0672H130.111L125.312 16.5443Z" fill="white"/>
</svg>
